<svg width="157" height="53" viewBox="0 0 157 53" fill="none" xmlns="http://www.w3.org/2000/svg">
<path d="M10.057 6.70468C2.44078 16.7266 1.93114 28.0511 10.6136 37.2862C11.8055 38.5545 13.0701 39.709 14.3317 40.7803C17.8439 43.7582 21.5338 46.2551 24.1078 48.7833C25.4086 50.0553 26.4265 51.3024 27.1054 52.9621L27.3641 52.8643C26.6623 51.1562 25.6137 49.8818 24.2919 48.5936C21.6933 46.0546 18.0002 43.5695 14.4795 40.5999C13.2202 39.5356 11.9579 38.388 10.7713 37.1318C2.1485 27.9972 2.6155 16.7606 10.178 6.78146L10.0545 6.70613L10.057 6.70468Z" fill="white"/>
<path d="M18.8524 38.8575C19.1867 39.2408 19.7312 39.8326 20.2606 40.5833C22.0072 43.07 21.7315 44.3795 21.1634 45.4248C19.9336 43.8059 18.0036 42.7802 18.8544 38.858L18.8524 38.8575Z" fill="white"/>
<path d="M15.5506 36.3397C17.0375 38.2282 18.6631 40.5366 17.628 42.707C17.4376 42.4954 16.9653 42.0202 16.4994 41.4345C16.0336 40.8489 15.5771 40.1495 15.4124 39.4964C15.1745 38.5656 15.2053 37.4677 15.5486 36.3391L15.5506 36.3397Z" fill="white"/>
<path d="M12.6333 33.6646C14.0372 35.8778 15.0836 38.0377 14.1787 39.9277C12.6649 38.2181 11.3614 36.4336 12.6333 33.6646Z" fill="white"/>
<path d="M10.2503 30.7392C11.3783 33.3418 11.8068 35.3639 10.971 36.9107C9.38727 34.88 8.77452 32.836 10.2503 30.7392Z" fill="white"/>
<path d="M8.54763 27.5137C8.96602 29.3766 9.2654 31.95 8.19709 33.5212C6.67191 30.7935 7.13108 28.793 8.54763 27.5137Z" fill="white"/>
<path d="M7.62217 23.9674C7.62178 25.8325 7.38716 28.3181 6.10527 29.6862C5.37216 27.4304 5.57023 25.1359 7.62217 23.9674Z" fill="white"/>
<path d="M7.48233 20.1639C7.22053 21.8936 6.40762 24.362 4.92908 25.4872C4.66127 22.1673 6.12599 20.6218 7.48233 20.1639Z" fill="white"/>
<path d="M8.10612 16.3277C7.99177 16.6905 7.77599 17.2186 7.49914 17.7854C6.87362 19.0605 5.96808 20.4109 4.7182 21.1088C5.07602 17.8186 6.67505 16.5521 8.10612 16.3277Z" fill="white"/>
<path d="M9.44071 12.5675C8.91786 13.6883 7.44388 15.9041 5.39142 16.7661C6.32795 13.5627 8.1025 12.5715 9.44071 12.5675Z" fill="white"/>
<path d="M11.3861 8.97288C10.5116 10.4037 8.89823 11.9584 6.86077 12.6066C7.81207 10.7247 9.27289 8.69987 11.3861 8.97288Z" fill="white"/>
<path d="M13.832 5.61579C12.8075 6.99172 11.2033 8.18944 8.98447 8.72582C9.59708 7.85316 11.4502 5.01296 13.832 5.61579Z" fill="white"/>
<path d="M15.4032 1.12506C14.4659 2.59347 12.1983 5.75077 10.5337 6.23589C10.8466 4.64487 12.3077 2.55536 15.4032 1.12506Z" fill="white"/>
<path d="M13.3075 45.3939C13.786 45.6657 14.5307 46.0954 15.4042 46.439C18.2213 47.5476 19.4542 46.8912 20.307 46.1395C19.9547 45.9797 17.9529 44.723 16.507 44.6856C15.5036 44.6607 14.4356 44.9232 13.3095 45.3944L13.3075 45.3939Z" fill="white"/>
<path d="M9.4397 41.7961C9.90143 42.1227 10.6224 42.6328 11.4915 43.0556C12.3606 43.4784 13.3714 43.8142 14.4035 43.8426C15.0618 43.862 15.7226 43.6599 16.4397 43.0751C16.2501 42.9863 15.6711 42.6242 14.9673 42.2625C14.2636 41.9008 13.4321 41.5347 12.7184 41.4539C11.7189 41.3433 10.6249 41.4824 9.43917 41.7981L9.4397 41.7961Z" fill="white"/>
<path d="M5.83848 37.5992C6.25071 38.0078 6.89868 38.6401 7.71791 39.1935C10.22 40.8928 11.6548 40.4999 12.6562 39.8556C12.2815 39.6454 10.4531 38.1918 9.15575 37.8449C8.17926 37.586 7.07331 37.5336 5.83992 37.6017L5.83848 37.5992Z" fill="white"/>
<path d="M2.93835 32.6255C3.24292 33.128 3.74972 33.9003 4.44797 34.6286C6.49348 36.7686 8.04122 36.7338 9.19469 36.2551C7.62704 35.0109 7.34345 33.6043 2.93835 32.6255Z" fill="white"/>
<path d="M1.26782 27C1.99562 29.5765 3.67899 32.4973 6.36986 32.1082C4.83772 30.1818 5.20837 29.219 1.26782 27Z" fill="white"/>
<path d="M1.06641 21.2473C1.08141 21.797 1.12797 22.6619 1.35383 23.6064C2.0155 26.3892 3.2892 27.2161 4.56909 27.4144C3.61299 25.2637 4.32016 24.448 1.06588 21.2493L1.06641 21.2473Z" fill="white"/>
<path d="M2.14087 15.7007C1.65166 18.2453 1.67068 21.3044 4.01229 22.4253C3.66119 20.2249 4.49072 19.5669 2.14087 15.7007Z" fill="white"/>
<path d="M4.28492 10.6009C3.30278 12.9523 2.69765 15.7872 4.61191 17.4515C4.82069 15.1958 5.67161 14.662 4.28492 10.6009Z" fill="white"/>
<path d="M7.22629 6.05697C5.87986 8.1374 4.81197 10.6983 6.23015 12.7228C6.86855 10.7153 7.81433 10.2132 7.22629 6.05697Z" fill="white"/>
<path d="M10.761 2.06706C9.13819 3.87904 7.72687 6.13033 8.67288 8.37959C9.64237 6.48387 10.61 6.34079 10.761 2.06706Z" fill="white"/>
<path d="M146.943 6.70468C154.559 16.7266 155.069 28.0511 146.386 37.2862C145.195 38.5545 143.93 39.709 142.668 40.7803C139.156 43.7582 135.466 46.2551 132.892 48.7833C131.591 50.0553 130.574 51.3024 129.895 52.9621L129.636 52.8643C130.338 51.1562 131.386 49.8818 132.708 48.5936C135.307 46.0546 139 43.5695 142.521 40.5999C143.78 39.5356 145.042 38.388 146.229 37.1318C154.851 27.9972 154.384 16.7606 146.822 6.78146L146.945 6.70613L146.943 6.70468Z" fill="white"/>
<path d="M138.148 38.8575C137.813 39.2408 137.269 39.8326 136.739 40.5833C134.993 43.07 135.269 44.3795 135.837 45.4248C137.066 43.8059 138.996 42.7802 138.146 38.858L138.148 38.8575Z" fill="white"/>
<path d="M141.449 36.3397C139.962 38.2282 138.337 40.5366 139.372 42.707C139.562 42.4954 140.035 42.0202 140.501 41.4345C140.966 40.8489 141.423 40.1495 141.588 39.4964C141.826 38.5656 141.795 37.4677 141.451 36.3391L141.449 36.3397Z" fill="white"/>
<path d="M144.367 33.6646C142.963 35.8778 141.916 38.0377 142.821 39.9277C144.335 38.2181 145.639 36.4336 144.367 33.6646Z" fill="white"/>
<path d="M146.75 30.7392C145.622 33.3418 145.193 35.3639 146.029 36.9107C147.613 34.88 148.225 32.836 146.75 30.7392Z" fill="white"/>
<path d="M148.452 27.5137C148.034 29.3766 147.735 31.95 148.803 33.5212C150.328 30.7935 149.869 28.793 148.452 27.5137Z" fill="white"/>
<path d="M149.378 23.9674C149.378 25.8325 149.613 28.3181 150.895 29.6862C151.628 27.4304 151.43 25.1359 149.378 23.9674Z" fill="white"/>
<path d="M149.518 20.1639C149.779 21.8936 150.592 24.362 152.071 25.4872C152.339 22.1673 150.874 20.6218 149.518 20.1639Z" fill="white"/>
<path d="M148.894 16.3277C149.008 16.6905 149.224 17.2186 149.501 17.7854C150.126 19.0605 151.032 20.4109 152.282 21.1088C151.924 17.8186 150.325 16.5521 148.894 16.3277Z" fill="white"/>
<path d="M147.559 12.5675C148.082 13.6883 149.556 15.9041 151.609 16.7661C150.672 13.5627 148.898 12.5715 147.559 12.5675Z" fill="white"/>
<path d="M145.614 8.97288C146.488 10.4037 148.102 11.9584 150.139 12.6066C149.188 10.7247 147.727 8.69987 145.614 8.97288Z" fill="white"/>
<path d="M143.168 5.61579C144.193 6.99172 145.797 8.18944 148.016 8.72582C147.403 7.85316 145.55 5.01296 143.168 5.61579Z" fill="white"/>
<path d="M141.597 1.12506C142.534 2.59347 144.802 5.75077 146.466 6.23589C146.153 4.64487 144.692 2.55536 141.597 1.12506Z" fill="white"/>
<path d="M143.692 45.3939C143.214 45.6657 142.469 46.0954 141.596 46.439C138.779 47.5476 137.546 46.8912 136.693 46.1395C137.045 45.9797 139.047 44.723 140.493 44.6856C141.496 44.6607 142.564 44.9232 143.691 45.3944L143.692 45.3939Z" fill="white"/>
<path d="M147.56 41.7961C147.099 42.1227 146.378 42.6328 145.509 43.0556C144.639 43.4784 143.629 43.8142 142.597 43.8426C141.938 43.862 141.277 43.6599 140.56 43.0751C140.75 42.9863 141.329 42.6242 142.033 42.2625C142.736 41.9008 143.568 41.5347 144.282 41.4539C145.281 41.3433 146.375 41.4824 147.561 41.7981L147.56 41.7961Z" fill="white"/>
<path d="M151.162 37.5992C150.749 38.0078 150.101 38.6401 149.282 39.1935C146.78 40.8928 145.345 40.4999 144.344 39.8556C144.718 39.6454 146.547 38.1918 147.844 37.8449C148.821 37.586 149.927 37.5336 151.16 37.6017L151.162 37.5992Z" fill="white"/>
<path d="M154.062 32.6255C153.757 33.128 153.25 33.9003 152.552 34.6286C150.507 36.7686 148.959 36.7338 147.805 36.2551C149.373 35.0109 149.657 33.6043 154.062 32.6255Z" fill="white"/>
<path d="M155.732 27C155.004 29.5765 153.321 32.4973 150.63 32.1082C152.162 30.1818 151.792 29.219 155.732 27Z" fill="white"/>
<path d="M155.934 21.2473C155.919 21.797 155.872 22.6619 155.646 23.6064C154.984 26.3892 153.711 27.2161 152.431 27.4144C153.387 25.2637 152.68 24.448 155.934 21.2493L155.934 21.2473Z" fill="white"/>
<path d="M154.859 15.7007C155.348 18.2453 155.329 21.3044 152.988 22.4253C153.339 20.2249 152.509 19.5669 154.859 15.7007Z" fill="white"/>
<path d="M152.715 10.6009C153.697 12.9523 154.302 15.7872 152.388 17.4515C152.179 15.1958 151.328 14.662 152.715 10.6009Z" fill="white"/>
<path d="M149.774 6.05697C151.12 8.1374 152.188 10.6983 150.77 12.7228C150.131 10.7153 149.186 10.2132 149.774 6.05697Z" fill="white"/>
<path d="M146.239 2.06706C147.862 3.87904 149.273 6.13033 148.327 8.37959C147.358 6.48387 146.39 6.34079 146.239 2.06706Z" fill="white"/>
<path d="M36.2385 27.2784C34.8332 27.2784 33.5803 27.0199 32.4799 26.5028C31.3862 25.9858 30.5178 25.2732 29.8748 24.3651C29.2318 23.4569 28.8971 22.4162 28.8706 21.2429H33.0467C33.0931 22.0317 33.4245 22.6714 34.041 23.1619C34.6575 23.6525 35.39 23.8977 36.2385 23.8977C36.9146 23.8977 37.5112 23.7486 38.0282 23.4503C38.5519 23.1454 38.9596 22.7244 39.2512 22.1875C39.5495 21.6439 39.6987 21.0208 39.6987 20.3182C39.6987 19.6023 39.5462 18.9725 39.2413 18.429C38.943 17.8854 38.5287 17.4612 37.9984 17.1562C37.4681 16.8513 36.8616 16.6955 36.1788 16.6889C35.5822 16.6889 35.0022 16.8116 34.4387 17.0568C33.8819 17.3021 33.4477 17.6368 33.1362 18.0611L29.3081 17.375L30.2725 6.63636H42.7214V10.1562H33.8223L33.2953 15.2571H33.4146C33.7725 14.7533 34.3128 14.3357 35.0353 14.0043C35.7579 13.6728 36.5666 13.5071 37.4615 13.5071C38.6878 13.5071 39.7815 13.7955 40.7427 14.3722C41.7039 14.9489 42.4629 15.741 43.0197 16.7486C43.5765 17.7495 43.8516 18.9029 43.845 20.2088C43.8516 21.581 43.5334 22.8007 42.8904 23.8679C42.2541 24.9285 41.3625 25.7637 40.2157 26.3736C39.0756 26.9768 37.7498 27.2784 36.2385 27.2784ZM46.9672 6.63636H52.2768L57.8848 20.3182H58.1234L63.7314 6.63636H69.041V27H64.8649V13.7457H64.6958L59.426 26.9006H56.5822L51.3123 13.696H51.1433V27H46.9672V6.63636ZM78.5542 23.8977V9.81818H82.1138V23.8977H78.5542ZM73.2942 18.6378V15.0781H87.3738V18.6378H73.2942Z" fill="url(#paint0_linear_4568_1170)"/>
<path d="M94.6321 15V7.72727H96.1697V10.728H99.2912V7.72727H100.825V15H99.2912V11.9957H96.1697V15H94.6321ZM103.347 15H101.699L104.21 7.72727H106.191L108.698 15H107.05L105.229 9.3892H105.172L103.347 15ZM103.244 12.1413H107.136V13.3416H103.244V12.1413ZM109.574 15V7.72727H112.443C112.994 7.72727 113.464 7.83262 113.853 8.04332C114.241 8.25166 114.537 8.54167 114.74 8.91335C114.946 9.28267 115.049 9.70881 115.049 10.1918C115.049 10.6747 114.945 11.1009 114.737 11.4702C114.529 11.8395 114.227 12.1271 113.831 12.3331C113.438 12.5391 112.962 12.642 112.404 12.642H110.575V11.4098H112.155C112.451 11.4098 112.695 11.3589 112.887 11.2571C113.081 11.1529 113.225 11.0097 113.32 10.8274C113.417 10.6428 113.466 10.4309 113.466 10.1918C113.466 9.95028 113.417 9.73958 113.32 9.55966C113.225 9.37737 113.081 9.23651 112.887 9.13707C112.693 9.03527 112.446 8.98438 112.148 8.98438H111.111V15H109.574ZM116.048 15V7.72727H118.917C119.469 7.72727 119.939 7.83262 120.327 8.04332C120.715 8.25166 121.011 8.54167 121.215 8.91335C121.421 9.28267 121.524 9.70881 121.524 10.1918C121.524 10.6747 121.42 11.1009 121.211 11.4702C121.003 11.8395 120.701 12.1271 120.306 12.3331C119.913 12.5391 119.437 12.642 118.878 12.642H117.05V11.4098H118.63C118.926 11.4098 119.17 11.3589 119.361 11.2571C119.555 11.1529 119.7 11.0097 119.795 10.8274C119.892 10.6428 119.94 10.4309 119.94 10.1918C119.94 9.95028 119.892 9.73958 119.795 9.55966C119.7 9.37737 119.555 9.23651 119.361 9.13707C119.167 9.03527 118.921 8.98438 118.623 8.98438H117.586V15H116.048ZM122.097 7.72727H123.819L125.477 10.8594H125.548L127.207 7.72727H128.929L126.276 12.429V15H124.749V12.429L122.097 7.72727ZM99.1243 19.7273H100.662V24.4503C100.662 24.9806 100.535 25.4446 100.282 25.8423C100.031 26.2401 99.6795 26.5502 99.2273 26.7727C98.7751 26.9929 98.2483 27.103 97.647 27.103C97.0433 27.103 96.5154 26.9929 96.0632 26.7727C95.611 26.5502 95.2595 26.2401 95.0085 25.8423C94.7576 25.4446 94.6321 24.9806 94.6321 24.4503V19.7273H96.1697V24.3189C96.1697 24.5959 96.2301 24.8421 96.3509 25.0575C96.474 25.273 96.6468 25.4422 96.8693 25.5653C97.0919 25.6884 97.3511 25.75 97.647 25.75C97.9453 25.75 98.2045 25.6884 98.4247 25.5653C98.6473 25.4422 98.8189 25.273 98.9396 25.0575C99.0627 24.8421 99.1243 24.5959 99.1243 24.3189V19.7273ZM105.872 21.8189C105.844 21.5324 105.722 21.3099 105.507 21.1513C105.291 20.9927 104.999 20.9134 104.629 20.9134C104.378 20.9134 104.167 20.9489 103.994 21.0199C103.821 21.0885 103.688 21.1844 103.596 21.3075C103.506 21.4306 103.461 21.5703 103.461 21.7266C103.456 21.8568 103.484 21.9704 103.543 22.0675C103.604 22.1645 103.688 22.2486 103.795 22.3196C103.901 22.3883 104.025 22.4486 104.164 22.5007C104.304 22.5504 104.453 22.593 104.612 22.6286L105.265 22.7848C105.582 22.8558 105.874 22.9505 106.139 23.0689C106.404 23.1873 106.633 23.3329 106.828 23.5057C107.022 23.6785 107.172 23.8821 107.279 24.1165C107.387 24.3509 107.443 24.6196 107.445 24.9226C107.443 25.3677 107.329 25.7536 107.105 26.0803C106.882 26.4046 106.56 26.6567 106.139 26.8366C105.72 27.0142 105.214 27.103 104.622 27.103C104.035 27.103 103.524 27.013 103.088 26.8331C102.655 26.6532 102.316 26.3868 102.073 26.0341C101.831 25.679 101.704 25.2398 101.693 24.7166H103.181C103.197 24.9605 103.267 25.1641 103.39 25.3274C103.516 25.4884 103.682 25.6103 103.891 25.6932C104.102 25.7737 104.339 25.8139 104.605 25.8139C104.865 25.8139 105.091 25.776 105.283 25.7003C105.477 25.6245 105.627 25.5192 105.734 25.3842C105.84 25.2493 105.894 25.0942 105.894 24.919C105.894 24.7557 105.845 24.6184 105.748 24.5071C105.653 24.3958 105.514 24.3011 105.329 24.223C105.147 24.1449 104.923 24.0739 104.658 24.0099L103.866 23.8111C103.253 23.6619 102.769 23.4287 102.414 23.1115C102.058 22.7943 101.882 22.367 101.884 21.8295C101.882 21.3892 101.999 21.0045 102.236 20.6754C102.475 20.3464 102.803 20.0895 103.22 19.9048C103.636 19.7202 104.11 19.6278 104.64 19.6278C105.18 19.6278 105.651 19.7202 106.053 19.9048C106.458 20.0895 106.773 20.3464 106.998 20.6754C107.223 21.0045 107.339 21.3857 107.346 21.8189H105.872ZM108.48 27V19.7273H113.38V20.995H110.017V22.728H113.128V23.9957H110.017V25.7322H113.395V27H108.48ZM114.603 27V19.7273H117.472C118.021 19.7273 118.49 19.8255 118.878 20.022C119.269 20.2161 119.566 20.492 119.77 20.8494C119.976 21.2045 120.079 21.6224 120.079 22.103C120.079 22.5859 119.974 23.0014 119.766 23.3494C119.558 23.6951 119.256 23.9602 118.861 24.1449C118.468 24.3295 117.992 24.4219 117.433 24.4219H115.512V23.1861H117.184C117.478 23.1861 117.722 23.1458 117.916 23.0653C118.11 22.9848 118.255 22.8641 118.349 22.7031C118.446 22.5421 118.495 22.3421 118.495 22.103C118.495 21.8615 118.446 21.6579 118.349 21.4922C118.255 21.3265 118.109 21.201 117.912 21.1158C117.718 21.0282 117.473 20.9844 117.177 20.9844H116.14V27H114.603ZM118.53 23.6903L120.338 27H118.64L116.872 23.6903H118.53ZM125.111 21.8189C125.082 21.5324 124.96 21.3099 124.745 21.1513C124.529 20.9927 124.237 20.9134 123.868 20.9134C123.617 20.9134 123.405 20.9489 123.232 21.0199C123.059 21.0885 122.927 21.1844 122.834 21.3075C122.744 21.4306 122.699 21.5703 122.699 21.7266C122.695 21.8568 122.722 21.9704 122.781 22.0675C122.843 22.1645 122.927 22.2486 123.033 22.3196C123.14 22.3883 123.263 22.4486 123.403 22.5007C123.542 22.5504 123.691 22.593 123.85 22.6286L124.503 22.7848C124.821 22.8558 125.112 22.9505 125.377 23.0689C125.642 23.1873 125.872 23.3329 126.066 23.5057C126.26 23.6785 126.41 23.8821 126.517 24.1165C126.626 24.3509 126.681 24.6196 126.684 24.9226C126.681 25.3677 126.568 25.7536 126.343 26.0803C126.12 26.4046 125.798 26.6567 125.377 26.8366C124.958 27.0142 124.452 27.103 123.861 27.103C123.273 27.103 122.762 27.013 122.327 26.8331C121.893 26.6532 121.555 26.3868 121.311 26.0341C121.069 25.679 120.943 25.2398 120.931 24.7166H122.419C122.435 24.9605 122.505 25.1641 122.628 25.3274C122.754 25.4884 122.921 25.6103 123.129 25.6932C123.34 25.7737 123.578 25.8139 123.843 25.8139C124.103 25.8139 124.329 25.776 124.521 25.7003C124.715 25.6245 124.866 25.5192 124.972 25.3842C125.079 25.2493 125.132 25.0942 125.132 24.919C125.132 24.7557 125.083 24.6184 124.986 24.5071C124.892 24.3958 124.752 24.3011 124.567 24.223C124.385 24.1449 124.161 24.0739 123.896 24.0099L123.104 23.8111C122.491 23.6619 122.007 23.4287 121.652 23.1115C121.297 22.7943 121.12 22.367 121.123 21.8295C121.12 21.3892 121.238 21.0045 121.474 20.6754C121.713 20.3464 122.041 20.0895 122.458 19.9048C122.875 19.7202 123.348 19.6278 123.878 19.6278C124.418 19.6278 124.889 19.7202 125.292 19.9048C125.697 20.0895 126.011 20.3464 126.236 20.6754C126.461 21.0045 126.577 21.3857 126.584 21.8189H125.111Z" fill="white"/>
<path d="M42.9049 36.2927C42.9348 36.2006 43.0652 36.2006 43.0951 36.2927L44.5491 40.7678C44.5625 40.809 44.6009 40.8369 44.6443 40.8369H49.3496C49.4465 40.8369 49.4868 40.9608 49.4084 41.0178L45.6017 43.7835C45.5666 43.809 45.552 43.8541 45.5654 43.8953L47.0194 48.3704C47.0493 48.4625 46.9439 48.5392 46.8655 48.4822L43.0588 45.7165C43.0237 45.691 42.9763 45.691 42.9412 45.7165L39.1345 48.4822C39.0561 48.5392 38.9507 48.4625 38.9806 48.3704L40.4346 43.8953C40.448 43.8541 40.4334 43.809 40.3983 43.7835L36.5916 41.0178C36.5132 40.9608 36.5535 40.8369 36.6504 40.8369H41.3557C41.3991 40.8369 41.4375 40.809 41.4509 40.7678L42.9049 36.2927Z" fill="#FFB800"/>
<path d="M60.9049 36.2927C60.9348 36.2006 61.0652 36.2006 61.0951 36.2927L62.5491 40.7678C62.5625 40.809 62.6009 40.8369 62.6443 40.8369H67.3496C67.4465 40.8369 67.4868 40.9608 67.4084 41.0178L63.6017 43.7835C63.5666 43.809 63.552 43.8541 63.5654 43.8953L65.0194 48.3704C65.0493 48.4625 64.9439 48.5392 64.8655 48.4822L61.0588 45.7165C61.0237 45.691 60.9763 45.691 60.9412 45.7165L57.1345 48.4822C57.0561 48.5392 56.9507 48.4625 56.9806 48.3704L58.4346 43.8953C58.448 43.8541 58.4334 43.809 58.3983 43.7835L54.5916 41.0178C54.5132 40.9608 54.5535 40.8369 54.6504 40.8369H59.3557C59.3991 40.8369 59.4375 40.809 59.4509 40.7678L60.9049 36.2927Z" fill="#FFB800"/>
<path d="M78.9049 36.2927C78.9348 36.2006 79.0652 36.2006 79.0951 36.2927L80.5491 40.7678C80.5625 40.809 80.6009 40.8369 80.6443 40.8369H85.3496C85.4465 40.8369 85.4868 40.9608 85.4084 41.0178L81.6017 43.7835C81.5666 43.809 81.552 43.8541 81.5654 43.8953L83.0194 48.3704C83.0493 48.4625 82.9439 48.5392 82.8655 48.4822L79.0588 45.7165C79.0237 45.691 78.9763 45.691 78.9412 45.7165L75.1345 48.4822C75.0561 48.5392 74.9507 48.4625 74.9806 48.3704L76.4346 43.8953C76.448 43.8541 76.4334 43.809 76.3983 43.7835L72.5916 41.0178C72.5132 40.9608 72.5535 40.8369 72.6504 40.8369H77.3557C77.3991 40.8369 77.4375 40.809 77.4509 40.7678L78.9049 36.2927Z" fill="#FFB800"/>
<path d="M96.9049 36.2927C96.9348 36.2006 97.0652 36.2006 97.0951 36.2927L98.5491 40.7678C98.5625 40.809 98.6009 40.8369 98.6443 40.8369H103.35C103.447 40.8369 103.487 40.9608 103.408 41.0178L99.6017 43.7835C99.5666 43.809 99.552 43.8541 99.5654 43.8953L101.019 48.3704C101.049 48.4625 100.944 48.5392 100.866 48.4822L97.0588 45.7165C97.0237 45.691 96.9763 45.691 96.9412 45.7165L93.1345 48.4822C93.0561 48.5392 92.9507 48.4625 92.9806 48.3704L94.4346 43.8953C94.448 43.8541 94.4334 43.809 94.3983 43.7835L90.5916 41.0178C90.5132 40.9608 90.5535 40.8369 90.6504 40.8369H95.3557C95.3991 40.8369 95.4375 40.809 95.4509 40.7678L96.9049 36.2927Z" fill="#FFB800"/>
<path d="M114.905 36.2927C114.935 36.2006 115.065 36.2006 115.095 36.2927L116.549 40.7678C116.563 40.809 116.601 40.8369 116.644 40.8369H121.35C121.447 40.8369 121.487 40.9608 121.408 41.0178L117.602 43.7835C117.567 43.809 117.552 43.8541 117.565 43.8953L119.019 48.3704C119.049 48.4625 118.944 48.5392 118.866 48.4822L115.059 45.7165C115.024 45.691 114.976 45.691 114.941 45.7165L111.134 48.4822C111.056 48.5392 110.951 48.4625 110.981 48.3704L112.435 43.8953C112.448 43.8541 112.433 43.809 112.398 43.7835L108.592 41.0178C108.513 40.9608 108.554 40.8369 108.65 40.8369H113.356C113.399 40.8369 113.437 40.809 113.451 40.7678L114.905 36.2927Z" fill="#FFB800"/>
<defs>
<linearGradient id="paint0_linear_4568_1170" x1="58.5" y1="0" x2="58.5" y2="34" gradientUnits="userSpaceOnUse">
<stop stop-color="#00DC83"/>
<stop offset="1" stop-color="#079F61"/>
</linearGradient>
</defs>
</svg>
