<svg width="20" height="19" viewBox="0 0 20 19" fill="none" xmlns="http://www.w3.org/2000/svg">
<path d="M1.29297 18.5391C0.882812 18.1406 0.894531 17.4609 1.29297 17.0625L8.79297 9.55078L1.29297 2.05078C0.894531 1.65234 0.894531 0.984375 1.29297 0.574219C1.69141 0.152344 2.38281 0.164062 2.78125 0.574219L10.2812 8.07422L17.7812 0.574219C18.1797 0.164062 18.8594 0.164062 19.2695 0.574219C19.6797 0.972656 19.668 1.65234 19.2695 2.05078L11.7695 9.55078L19.2695 17.0625C19.668 17.4609 19.668 18.1289 19.2695 18.5391C18.8711 18.9492 18.1797 18.9375 17.7812 18.5391L10.2812 11.0391L2.78125 18.5391C2.38281 18.9375 1.70312 18.9375 1.29297 18.5391Z" fill="#656565"/>
</svg>
