<svg width="18" height="18" viewBox="0 0 18 18" fill="none" xmlns="http://www.w3.org/2000/svg">
<path d="M3.00001 11.1742C2.44279 10.6049 2.02244 9.91624 1.77079 9.16041C1.51914 8.40458 1.44279 7.60139 1.54753 6.81168C1.65227 6.02197 1.93535 5.26645 2.37533 4.60236C2.81531 3.93826 3.40065 3.38299 4.08701 2.97862C4.77337 2.57424 5.54276 2.33137 6.33689 2.26839C7.13102 2.20541 7.92906 2.32397 8.67059 2.6151C9.41211 2.90623 10.0777 3.36229 10.6168 3.94873C11.156 4.53518 11.5546 5.23663 11.7825 5.99995H13.125C13.8491 5.99987 14.5541 6.2327 15.1358 6.66403C15.7174 7.09537 16.1449 7.70235 16.3551 8.39531C16.5653 9.08827 16.547 9.83045 16.303 10.5122C16.059 11.194 15.6022 11.7792 15 12.1815M9.00001 8.99995V15.75" stroke="#7D7D7D" stroke-linecap="round" stroke-linejoin="round"/>
<path d="M12 12L9 9L6 12" stroke="#7D7D7D" stroke-linecap="round" stroke-linejoin="round"/>
</svg>
