<svg width="12" height="13" viewBox="0 0 12 13" fill="none" xmlns="http://www.w3.org/2000/svg">
<path d="M6.02539 12.2461C2.76172 12.2461 0.0488281 9.5332 0.0488281 6.26953C0.0488281 3 2.75586 0.292969 6.01953 0.292969C9.28906 0.292969 12.002 3 12.002 6.26953C12.002 9.5332 9.29492 12.2461 6.02539 12.2461ZM2.96094 6.90234H6.01953C6.24805 6.90234 6.42969 6.72656 6.42969 6.49219V2.54297C6.42969 2.31445 6.24805 2.13867 6.01953 2.13867C5.79102 2.13867 5.61523 2.31445 5.61523 2.54297V6.08789H2.96094C2.72656 6.08789 2.55078 6.26367 2.55078 6.49219C2.55078 6.72656 2.72656 6.90234 2.96094 6.90234Z" fill="#00DC83"/>
</svg>
