<svg width="18" height="17" viewBox="0 0 18 17" fill="none" xmlns="http://www.w3.org/2000/svg">
<path d="M8.95264 16.9736C4.3291 16.9736 0.48584 13.1304 0.48584 8.50684C0.48584 3.875 4.3208 0.0400391 8.94434 0.0400391C13.5762 0.0400391 17.4194 3.875 17.4194 8.50684C17.4194 13.1304 13.5845 16.9736 8.95264 16.9736ZM8.02295 12.5659C8.30518 12.5659 8.5459 12.4331 8.72021 12.1592L12.6216 6.0166C12.7212 5.84229 12.8291 5.65137 12.8291 5.46875C12.8291 5.07861 12.4888 4.82959 12.1235 4.82959C11.9077 4.82959 11.6919 4.9624 11.5342 5.21143L7.98975 10.9058L6.30469 8.73096C6.09717 8.45703 5.91455 8.38232 5.67383 8.38232C5.30029 8.38232 5.00977 8.68945 5.00977 9.06299C5.00977 9.25391 5.08447 9.43652 5.20898 9.60254L7.29248 12.1592C7.5083 12.4497 7.74072 12.5659 8.02295 12.5659Z" fill="#00DC83"/>
</svg>
