<svg width="136" height="185" viewBox="0 0 136 185" fill="none" xmlns="http://www.w3.org/2000/svg">
<g clip-path="url(#clip0_4568_1571)">
<path d="M18.4051 56.2859L15.6629 55.8673C11.2375 55.1929 7.9704 51.4203 7.9704 46.9846V38.3199C7.9704 33.8841 11.2375 30.1116 15.6629 29.4372L18.4051 29.0186V56.2849V56.2859Z" fill="url(#paint0_linear_4568_1571)"/>
<path d="M117.595 56.2859L120.337 55.8673C124.762 55.1929 128.03 51.4203 128.03 46.9846V38.3199C128.03 33.8841 124.762 30.1116 120.337 29.4372L117.595 29.0186V56.2849V56.2859Z" fill="url(#paint1_linear_4568_1571)"/>
<path d="M36.3276 92.1996C36.0259 96.2863 33.0884 96.6026 29.7996 104.353C25.5974 114.258 24.5652 123.877 22.3096 134.459C19.4972 147.662 11.6105 148.6 8.07266 147.881C1.69654 146.583 -1.24095 139.03 0.488688 130.908C6.87513 100.94 18.9764 86.765 30.6644 86.8745C32.8414 86.8949 36.621 88.2183 36.3266 92.1996H36.3276Z" fill="url(#paint2_linear_4568_1571)"/>
<path d="M99.6723 92.1996C99.974 96.2863 102.912 96.6026 106.2 104.353C110.402 114.258 111.435 123.877 113.69 134.459C116.503 147.662 124.389 148.6 127.927 147.881C134.303 146.583 137.241 139.03 135.511 130.908C129.125 100.94 117.023 86.765 105.335 86.8745C103.158 86.8949 99.3789 88.2183 99.6733 92.1996H99.6723Z" fill="url(#paint3_linear_4568_1571)"/>
<path d="M110.768 103.156C110.768 110.462 110.083 117.153 108.81 123.198C108.682 123.814 108.547 124.424 108.404 125.027C102.59 149.766 86.6959 163.161 68.0005 163.161C49.3051 163.161 33.4107 149.766 27.5967 125.027C27.4541 124.424 27.3177 123.814 27.1907 123.198C25.9177 117.153 25.2327 110.462 25.2327 103.156C25.2327 86.9011 42.3948 76.4842 68.0005 76.4842C93.6062 76.4842 110.768 86.9011 110.768 103.156Z" fill="url(#paint4_linear_4568_1571)"/>
<path d="M108.81 123.198C108.682 123.814 108.547 124.424 108.404 125.026C103.418 126.742 95.932 129.046 88.6136 130.271V135.036L87.9885 135.177C87.8986 135.198 78.8226 137.221 68.0015 137.221C57.1804 137.221 48.1045 135.198 48.0146 135.177L47.3895 135.036V130.271C40.071 129.046 32.5852 126.742 27.5988 125.026C27.4562 124.424 27.3198 123.814 27.1927 123.198C32.2215 124.962 40.4254 127.558 48.3214 128.807L48.9992 128.915V133.756C51.2073 134.201 58.9855 135.629 68.0036 135.629C77.0217 135.629 84.802 134.202 87.008 133.756V128.915L87.6858 128.807C95.5818 127.558 103.786 124.962 108.814 123.198H108.81Z" fill="url(#paint5_linear_4568_1571)"/>
<path d="M50.6018 71.4425V81.622C50.6018 87.0188 58.3914 91.3941 67.9995 91.3941C77.6076 91.3941 85.3971 87.0188 85.3971 81.622V71.4425H50.6018Z" fill="url(#paint6_linear_4568_1571)"/>
<path d="M68.0005 26.3565C78.1813 26.3565 86.4345 20.4564 86.4345 13.1782C86.4345 5.9001 78.1813 0 68.0005 0C57.8197 0 49.5665 5.9001 49.5665 13.1782C49.5665 20.4564 57.8197 26.3565 68.0005 26.3565Z" fill="url(#paint7_linear_4568_1571)"/>
<path d="M16.5659 55.9175C16.5659 62.1361 20.0024 67.8583 25.5251 70.8172C32.5449 74.5775 45.0202 78.0634 67.1511 78.0634C89.2821 78.0634 101.758 74.5775 108.777 70.8172C114.3 67.8583 117.736 62.1361 117.736 55.9175V28.6501C117.736 22.4315 114.3 16.7092 108.777 13.7504C101.757 9.99013 89.2821 6.50418 67.1511 6.50418C45.0202 6.50418 32.5439 9.99013 25.5251 13.7504C20.0024 16.7092 16.5659 22.4315 16.5659 28.6501V55.9165V55.9175Z" fill="url(#paint8_linear_4568_1571)"/>
<path d="M68.0005 73.1292C45.8944 73.1292 34.5473 69.5358 28.9203 66.5217C25.1252 64.4891 22.7674 60.5661 22.7674 56.2859V35.3672C22.7674 31.087 25.1252 27.1651 28.9203 25.1314C34.5473 22.1173 45.8944 18.5239 68.0005 18.5239C90.1066 18.5239 101.454 22.1173 107.081 25.1314C110.876 27.164 113.234 31.087 113.234 35.3672V56.2859C113.234 60.5661 110.876 64.4881 107.081 66.5217C101.454 69.5358 90.1066 73.1292 68.0005 73.1292Z" fill="url(#paint9_radial_4568_1571)"/>
<path d="M53.374 46.2457C53.374 50.0069 50.2949 48.135 46.4978 48.135C42.7006 48.135 39.6216 50.0069 39.6216 46.2457C39.6216 42.4844 42.7006 39.4344 46.4978 39.4344C50.2949 39.4344 53.374 42.4844 53.374 46.2457Z" fill="url(#paint10_radial_4568_1571)"/>
<path d="M73.5045 57.5192C73.5045 59.0248 72.8887 60.387 71.8916 61.3747C70.8956 62.3613 69.5193 62.9723 67.9994 62.9723C64.9596 62.9723 62.4954 60.5313 62.4954 57.5203C62.4954 57.3053 62.5832 57.1109 62.7258 56.9696C62.8684 56.8284 63.0657 56.7414 63.2817 56.7414H72.7182C73.1522 56.7414 73.5045 57.0904 73.5045 57.5203V57.5192Z" fill="#54E0EF"/>
<path d="M96.302 46.2457C96.302 50.0069 93.2229 48.135 89.4258 48.135C85.6286 48.135 82.5496 50.0069 82.5496 46.2457C82.5496 42.4844 85.6286 39.4344 89.4258 39.4344C93.2229 39.4344 96.302 42.4844 96.302 46.2457Z" fill="url(#paint11_radial_4568_1571)"/>
<path opacity="0.04" d="M110.768 103.156C110.768 110.462 110.083 117.153 108.811 123.198C108.683 123.814 108.547 124.424 108.405 125.026C102.591 149.766 86.6969 163.161 68.0015 163.161C59.2552 163.161 51.1225 160.229 44.3466 154.575C50.8301 156.074 57.7136 155.503 64.1041 153.618C79.4787 149.083 92.2341 136.643 97.0531 121.488C101.423 107.746 99.1516 92.13 91.2535 80.0602C103.455 84.4222 110.769 92.5455 110.769 103.157L110.768 103.156Z" fill="#383838"/>
<path opacity="0.49" d="M48.244 92.7891C47.4184 94.572 45.7115 95.7582 44.203 97.0273C39.4656 101.016 36.1375 106.616 34.9183 112.656C34.6703 113.886 33.9842 115.513 32.7505 115.226C32.0066 115.053 31.647 114.231 31.4321 113.504C29.7046 107.648 30.3658 101.137 33.2351 95.7378C35.345 91.7687 38.6307 88.4343 42.5498 86.1918C44.1193 85.2932 46.1207 85.5716 47.3357 86.9042C47.344 86.9123 47.3512 86.9216 47.3595 86.9297C48.7616 88.4905 49.1243 90.8896 48.245 92.7891H48.244Z" fill="white"/>
<path opacity="0.49" d="M39.8799 17.5802C29.6188 19.9516 24.2728 24.3965 21.6587 27.513C21.0026 28.296 19.7245 27.6583 19.9766 26.6717C21.3198 21.4356 24.9176 18.138 28.5411 16.1177C31.6853 14.3634 35.1497 13.3185 38.6793 12.5017C39.9729 12.2018 41.2872 12.9162 41.7304 14.1577L41.748 14.2079C42.2656 15.6591 41.3926 17.2322 39.8799 17.5812V17.5802Z" fill="white"/>
<path opacity="0.24" d="M68.0005 185C81.5247 185 92.4883 182.577 92.4883 179.588C92.4883 176.599 81.5247 174.176 68.0005 174.176C54.4763 174.176 43.5128 176.599 43.5128 179.588C43.5128 182.577 54.4763 185 68.0005 185Z" fill="url(#paint12_radial_4568_1571)"/>
</g>
<defs>
<linearGradient id="paint0_linear_4568_1571" x1="6.72328" y1="42.6522" x2="17.7087" y2="42.6522" gradientUnits="userSpaceOnUse">
<stop stop-color="#E4E8EF"/>
<stop offset="1" stop-color="#A0A5B0"/>
</linearGradient>
<linearGradient id="paint1_linear_4568_1571" x1="116.348" y1="42.6522" x2="127.332" y2="42.6522" gradientUnits="userSpaceOnUse">
<stop stop-color="#A0A5B0"/>
<stop offset="1" stop-color="#E4E8EF"/>
</linearGradient>
<linearGradient id="paint2_linear_4568_1571" x1="-4.34273" y1="117.465" x2="33.916" y2="117.465" gradientUnits="userSpaceOnUse">
<stop stop-color="#E4E8EF"/>
<stop offset="1" stop-color="#A0A5B0"/>
</linearGradient>
<linearGradient id="paint3_linear_4568_1571" x1="95.3131" y1="117.465" x2="133.573" y2="117.465" gradientUnits="userSpaceOnUse">
<stop stop-color="#A0A5B0"/>
<stop offset="1" stop-color="#E4E8EF"/>
</linearGradient>
<linearGradient id="paint4_linear_4568_1571" x1="68.0005" y1="101.792" x2="68.0005" y2="177.61" gradientUnits="userSpaceOnUse">
<stop stop-color="#E4E8EF"/>
<stop offset="1" stop-color="#A0A5B0"/>
</linearGradient>
<linearGradient id="paint5_linear_4568_1571" x1="68.0005" y1="127.757" x2="68.0005" y2="139.817" gradientUnits="userSpaceOnUse">
<stop stop-color="#A0A5B0"/>
<stop offset="1" stop-color="#B6BABF"/>
</linearGradient>
<linearGradient id="paint6_linear_4568_1571" x1="68.0005" y1="64.7388" x2="68.0005" y2="90.5467" gradientUnits="userSpaceOnUse">
<stop offset="0.21" stop-color="#E4E8EF"/>
<stop offset="1" stop-color="#A0A5B0"/>
</linearGradient>
<linearGradient id="paint7_linear_4568_1571" x1="68.0005" y1="9.30542" x2="68.0005" y2="0.504573" gradientUnits="userSpaceOnUse">
<stop stop-color="#A0A5B0"/>
<stop offset="1" stop-color="#E4E8EF"/>
</linearGradient>
<linearGradient id="paint8_linear_4568_1571" x1="67.1511" y1="14.5569" x2="67.1511" y2="77.1505" gradientUnits="userSpaceOnUse">
<stop stop-color="#E4E8EF"/>
<stop offset="1" stop-color="#A0A5B0"/>
</linearGradient>
<radialGradient id="paint9_radial_4568_1571" cx="0" cy="0" r="1" gradientUnits="userSpaceOnUse" gradientTransform="translate(68.0005 45.7153) scale(47.996 27.0992)">
<stop stop-color="#1F4760"/>
<stop offset="1" stop-color="#0E202B"/>
</radialGradient>
<radialGradient id="paint10_radial_4568_1571" cx="0" cy="0" r="1" gradientUnits="userSpaceOnUse" gradientTransform="translate(46.4978 44.0186) scale(5.86053 5.80514)">
<stop stop-color="#96F5FF"/>
<stop offset="1" stop-color="#54E0EF"/>
</radialGradient>
<radialGradient id="paint11_radial_4568_1571" cx="0" cy="0" r="1" gradientUnits="userSpaceOnUse" gradientTransform="translate(89.4258 0.0511788) scale(5.86053 5.80514)">
<stop stop-color="#96F5FF"/>
<stop offset="1" stop-color="#54E0EF"/>
</radialGradient>
<radialGradient id="paint12_radial_4568_1571" cx="0" cy="0" r="1" gradientUnits="userSpaceOnUse" gradientTransform="translate(68.0005 179.368) scale(23.3564 4.39576)">
<stop stop-opacity="0.8"/>
<stop offset="0.93" stop-opacity="0"/>
</radialGradient>
<clipPath id="clip0_4568_1571">
<rect width="136" height="185" fill="white"/>
</clipPath>
</defs>
</svg>
