<svg width="19" height="16" viewBox="0 0 19 16" fill="none" xmlns="http://www.w3.org/2000/svg">
<path d="M18.125 7.94922C18.125 8.19336 18.0273 8.41797 17.832 8.60352L11.3379 15.0781C11.1426 15.2637 10.9375 15.3516 10.7031 15.3516C10.2246 15.3516 9.85352 15 9.85352 14.5117C9.85352 14.2773 9.93164 14.043 10.0879 13.8965L12.2754 11.6699L15.5664 8.67188L13.2031 8.81836H0.849609C0.341797 8.81836 -0.00976562 8.45703 -0.00976562 7.94922C-0.00976562 7.44141 0.341797 7.08008 0.849609 7.08008H13.2031L15.5566 7.22656L12.2754 4.22852L10.0879 2.00195C9.93164 1.8457 9.85352 1.62109 9.85352 1.38672C9.85352 0.898438 10.2246 0.546875 10.7031 0.546875C10.9375 0.546875 11.1426 0.625 11.3574 0.839844L17.832 7.29492C18.0273 7.48047 18.125 7.70508 18.125 7.94922Z" fill="#F3F4F4"/>
</svg>